<svg width="1280" height="1112" viewBox="0 0 1280 1112" fill="none" xmlns="http://www.w3.org/2000/svg">
<g clip-path="url(#clip0_1_2)">
<path d="M886 359.5C721.801 306.005 622.765 243.173 538.059 369.668C425.559 537.668 251.454 345.907 299.059 583.932C331.559 746.432 488.258 523.709 603.5 630.5C828.5 839 687.5 419.5 849.5 490C1011.5 560.5 1096.98 428.236 886 359.5Z" stroke="white" stroke-opacity="0.11"/>
<path d="M68.4514 403.501C241.144 403.979 354.691 433.357 396.452 286.96C451.916 92.5277 676.502 221.546 558.093 9.64743C477.254 -135.016 396.535 125.069 254.064 58.8342C-24.0987 -70.483 238.929 285.435 63.1062 268.098C-112.717 250.762 -153.443 402.887 68.4514 403.501Z" stroke="white" stroke-opacity="0.11"/>
<path d="M23.4514 352.501C196.144 352.98 309.691 382.357 351.452 235.96C406.916 41.5277 631.502 170.546 513.093 -41.3525C432.254 -186.016 351.535 74.0688 209.064 7.83425C-69.0987 -121.483 193.929 234.435 18.1062 217.098C-157.717 199.762 -198.443 351.887 23.4514 352.501Z" stroke="white" stroke-opacity="0.11"/>
<path d="M-52.5486 315.501C120.144 315.98 233.691 345.357 275.452 198.96C330.916 4.52772 555.502 133.546 437.093 -78.3525C356.254 -223.016 275.535 37.0688 133.064 -29.1657C-145.099 -158.483 117.929 197.435 -57.8938 180.098C-233.717 162.762 -274.443 314.887 -52.5486 315.501Z" stroke="white" stroke-opacity="0.11"/>
<path d="M832.49 390.12C705.963 348.925 629.648 300.542 564.376 397.949C477.687 527.318 343.527 379.652 380.21 562.944C405.253 688.078 526.001 516.569 614.803 598.804C788.182 759.361 679.531 436.323 804.364 490.612C929.196 544.9 995.065 443.05 832.49 390.12Z" stroke="white" stroke-opacity="0.11"/>
<path d="M764.921 395.415C680.342 377.059 627.787 350.762 591.926 418.048C544.299 507.411 447.807 420.683 483.55 536.843C507.953 616.146 574.861 497.293 637.714 544.668C760.43 637.165 668.961 435.325 753.301 462.262C837.641 489.2 873.597 419.002 764.921 395.415Z" stroke="white" stroke-opacity="0.11"/>
<path d="M886 359.5C721.801 306.005 622.765 243.173 538.059 369.668C425.559 537.668 251.454 345.907 299.059 583.932C331.559 746.432 488.258 523.709 603.5 630.5C828.5 839 687.5 419.5 849.5 490C1011.5 560.5 1096.98 428.236 886 359.5Z" stroke="white" stroke-opacity="0.11"/>
<path d="M1038.42 319.21C767.579 230.976 604.226 127.342 464.508 335.981C278.946 613.078 -8.22895 296.79 70.2924 689.385C123.899 957.411 382.365 590.055 572.449 766.195C943.573 1110.09 711.002 418.173 978.211 534.455C1245.42 650.737 1386.41 432.583 1038.42 319.21Z" stroke="white" stroke-opacity="0.11"/>
<path d="M932.844 351.596C728.121 284.843 604.644 206.439 499.032 364.284C358.768 573.922 141.694 334.634 201.048 631.652C241.569 834.427 436.941 556.504 580.624 689.762C861.154 949.937 685.355 426.467 887.336 514.44C1089.32 602.413 1195.89 437.368 932.844 351.596Z" stroke="white" stroke-opacity="0.11"/>
<path d="M860.451 999.501C1033.14 999.98 1146.69 1029.36 1188.45 882.96C1243.92 688.528 1468.5 817.546 1350.09 605.647C1269.25 460.984 1188.53 721.069 1046.06 654.834C767.901 525.517 1030.93 881.435 855.106 864.098C679.283 846.762 638.557 998.887 860.451 999.501Z" stroke="white" stroke-opacity="0.11"/>
<path d="M926.451 1061.5C1099.14 1061.98 1212.69 1091.36 1254.45 944.96C1309.92 750.528 1534.5 879.546 1416.09 667.647C1335.25 522.984 1254.53 783.069 1112.06 716.834C833.901 587.517 1096.93 943.435 921.106 926.098C745.283 908.762 704.557 1060.89 926.451 1061.5Z" stroke="white" stroke-opacity="0.11"/>
<path d="M909.451 1045.5C1082.14 1045.98 1195.69 1075.36 1237.45 928.96C1292.92 734.528 1517.5 863.546 1399.09 651.647C1318.25 506.984 1237.53 767.069 1095.06 700.834C816.901 571.517 1079.93 927.435 904.106 910.098C728.283 892.762 687.557 1044.89 909.451 1045.5Z" stroke="white" stroke-opacity="0.11"/>
<path d="M886.451 1023.5C1059.14 1023.98 1172.69 1053.36 1214.45 906.96C1269.92 712.528 1494.5 841.546 1376.09 629.647C1295.25 484.984 1214.53 745.069 1072.06 678.834C793.901 549.517 1056.93 905.435 881.106 888.098C705.283 870.762 664.557 1022.89 886.451 1023.5Z" stroke="white" stroke-opacity="0.11"/>
<path d="M-391.671 1274.83C-114.911 1342.22 55.8486 1433.13 179.3 1214.48C343.258 924.072 653.648 1217.61 545.507 832.123C471.679 568.948 241.889 954.891 38.9639 793.712C-357.231 479.025 -72.7294 1151.26 -348.005 1055.63C-623.281 959.999 -747.283 1188.24 -391.671 1274.83Z" stroke="white" stroke-opacity="0.11"/>
<path d="M852.329 196.829C1129.09 264.217 1299.85 355.132 1423.3 136.475C1587.26 -153.928 1897.65 139.612 1789.51 -245.877C1715.68 -509.052 1485.89 -123.109 1282.96 -284.288C886.769 -598.975 1171.27 73.2601 895.995 -22.3706C620.719 -118.001 496.717 110.241 852.329 196.829Z" stroke="white" stroke-opacity="0.11"/>
<path d="M887.556 188.651C1117.57 244.658 1259.49 320.218 1362.09 138.49C1498.36 -102.866 1756.33 141.098 1666.45 -179.285C1605.09 -398.012 1414.11 -77.2517 1245.46 -211.208C916.181 -472.748 1152.63 85.9519 923.848 6.47249C695.064 -73.0069 592.006 116.687 887.556 188.651Z" stroke="white" stroke-opacity="0.11"/>
<path d="M-404.671 1326.83C-127.911 1394.22 42.8486 1485.13 166.3 1266.48C330.258 976.072 640.648 1269.61 532.507 884.123C458.679 620.948 228.889 1006.89 25.9639 845.712C-370.231 531.025 -85.7294 1203.26 -361.005 1107.63C-636.281 1012 -760.283 1240.24 -404.671 1326.83Z" stroke="white" stroke-opacity="0.11"/>
</g>
<defs>
<clipPath id="clip0_1_2">
<rect width="1280" height="1112" fill="white"/>
</clipPath>
</defs>
</svg>
